PathFileType	4	(X/Y/Z)	D:\luciana\demolition.trc
DataRate	CameraRate	NumFrames	NumMarkers	Units	OrigDataRate	OrigDataStartFrame	OrigNumFrames
250.00	250.00	14	18	mm	250.00	749	1806
Frame#	Time	pelvisR			Trunk1			Trunk2			Trunk3			C7			shoulder			upperArm1			upperArm2			upperArm3			elbow			forearm1			forearm2			forearm3			wrist1			wrist2			wrist3			Object			Hand			
		X1	Y1	Z1	X2	Y2	Z2	X3	Y3	Z3	X4	Y4	Z4	X5	Y5	Z5	X6	Y6	Z6	X7	Y7	Z7	X8	Y8	Z8	X9	Y9	Z9	X10	Y10	Z10	X11	Y11	Z11	X12	Y12	Z12	X13	Y13	Z13	X14	Y14	Z14	X15	Y15	Z15	X16	Y16	Z16	X17	Y17	Z17	X18	Y18	Z18	

748	2.992000	1704.463720	657.377779	690.681100	1480.079770	878.024757	614.550769	1543.431520	826.835752	609.056890	1454.671144	786.381304	610.138774	1535.744667	1137.632489	794.922709	1715.896010	1071.897388	744.239330	1804.081678	942.153454	683.545291	1855.434299	923.298359	747.927189	1807.190895	889.214635	795.187652	1858.340740	794.853449	708.217859	1927.685261	748.487890	673.448503	1858.845711	716.110289	643.653393	1921.999812	820.958555	659.496069	1996.147394	746.902406	545.841575	1932.300925	719.802797	505.419970	1985.629320	818.976998	554.582000	2020.883560	793.563306	424.833775	2014.909983	746.727824	436.640620	
749	2.996000	1704.397202	657.379091	690.457523	1480.088949	878.047764	614.584684	1543.458581	826.826751	609.104693	1454.691768	786.386490	610.164881	1535.795331	1137.624502	794.988155	1715.906143	1071.913481	744.223177	1803.944468	942.314804	683.225751	1855.424047	923.345745	747.449517	1807.285070	889.185309	794.767141	1858.224869	794.940531	707.444191	1927.513719	748.637140	672.457457	1858.587861	716.285229	642.826498	1921.790361	821.114361	658.603609	1995.651245	747.153521	544.708610	1931.643486	720.015824	504.334927	1985.070467	819.189429	553.421557	2020.010948	793.771684	423.643291	2013.986111	746.980309	435.391903	
750	3.000000	1704.328299	657.379031	690.217018	1480.131865	878.045738	614.605904	1543.488622	826.836884	609.148204	1454.732895	786.397815	610.214829	1535.873413	1137.622356	795.059323	1715.904474	1071.931481	744.221926	1803.806782	942.456007	682.931662	1855.426550	923.388243	746.997774	1807.371497	889.157414	794.346631	1858.141184	795.066476	706.678927	1927.324414	748.757482	671.418130	1858.329177	716.458082	642.019510	1921.579242	821.275234	657.713056	1995.156407	747.393727	543.606877	1930.958390	720.219314	503.228188	1984.521747	819.399238	552.241862	2019.173145	793.994546	422.454953	2012.969732	747.175872	434.150130	
751	3.004000	1704.253912	657.385945	689.962089	1480.170131	878.041625	614.638865	1543.509960	826.840758	609.186471	1454.756618	786.405265	610.263944	1535.956502	1137.622476	795.122206	1715.919137	1071.948528	744.228005	1803.668737	942.600608	682.627320	1855.441213	923.423648	746.548653	1807.446480	889.122427	793.928981	1858.084679	795.188248	705.913424	1927.130222	748.912215	670.414329	1858.077049	716.611922	641.222417	1921.391129	821.451783	656.763434	1994.657040	747.632325	542.499602	1930.285811	720.424533	502.165139	1983.980536	819.612861	551.062584	2018.320084	794.230700	421.220958	2012.002230	747.375727	432.940543	
752	3.008000	1704.588413	657.082677	690.720797	1480.195761	878.053904	614.667356	1543.545485	826.851606	609.225869	1454.779744	786.406100	610.297441	1536.033630	1137.613058	795.194328	1715.931058	1071.961880	744.231522	1803.517342	942.748308	682.305992	1855.455160	923.461139	746.085346	1807.538033	889.078081	793.506026	1858.028889	795.288920	705.133319	1926.986456	748.929977	669.415593	1857.826114	716.788471	640.407860	1921.210051	821.621537	655.812323	1994.153738	747.861385	541.364968	1929.636836	720.639110	501.094282	1983.432531	819.824040	549.897850	2017.421484	794.469655	419.987440	2011.240244	747.716784	431.621611	
753	3.012000	1705.456138	656.397104	692.813277	1480.235219	878.064334	614.690363	1543.575287	826.869845	609.277010	1454.810977	786.416471	610.327542	1536.121964	1137.614965	795.278847	1715.948582	1071.974754	744.234979	1803.361535	942.905664	681.960702	1855.473638	923.492432	745.632052	1807.637215	889.027059	793.066025	1857.951522	795.393825	704.354465	1926.864862	748.715699	668.334126	1857.585669	716.975391	639.571905	1920.997620	821.771681	654.899120	1993.661523	748.082042	540.240109	1928.952098	720.874608	499.990493	1982.870102	820.032537	548.770964	2016.448259	794.722140	418.723464	2010.328293	747.991025	430.300355	
754	3.016000	1705.677509	656.210363	693.352699	1480.260849	878.071010	614.737630	1543.608546	826.889932	609.318137	1454.849005	786.436558	610.362053	1536.197186	1137.606502	795.358479	1715.964198	1072.000980	744.234920	1803.212643	943.056107	681.611955	1855.471849	923.534274	745.155096	1807.748199	888.978302	792.626858	1857.859612	795.527399	703.623772	1926.690221	748.766840	667.276144	1857.366562	717.160881	638.759315	1920.762062	821.916580	653.993726	1993.141770	748.266935	539.062977	1928.259611	721.117616	498.916805	1982.295513	820.239663	547.620535	2015.493393	794.969678	417.450458	2009.439945	748.285532	429.038465	
755	3.020000	1705.742836	656.159997	693.499446	1480.286479	878.101766	614.785910	1543.660402	826.916575	609.372497	1454.886436	786.465228	610.398114	1536.277413	1137.597322	795.427084	1715.990782	1072.018027	744.236767	1803.080559	943.206489	681.278825	1855.462313	923.580647	744.692564	1807.865381	888.943136	792.204976	1857.775092	795.658231	702.917755	1926.499128	748.910069	666.258097	1857.134104	717.321992	637.934208	1920.551658	822.075486	653.113246	1992.609978	748.387396	537.874043	1927.589297	721.373856	497.859389	1981.723428	820.459187	546.429992	2014.536381	795.211136	416.173518	2008.482456	748.527408	427.787453	
756	3.024000	1705.771685	656.159937	693.553686	1480.324149	878.130019	614.822626	1543.694258	826.938510	609.421253	1454.920292	786.485314	610.426784	1536.354065	1137.593627	795.501530	1716.016173	1072.035432	744.255126	1802.955151	943.368375	680.937707	1855.449677	923.623443	744.257331	1807.967663	888.905287	791.802049	1857.686162	795.776606	702.152014	1926.304102	749.075234	665.268421	1856.874943	717.496455	637.096882	1920.341253	822.240651	652.195632	1992.062807	748.475671	536.639810	1926.899552	721.638441	496.780783	1981.162667	820.688546	545.241594	2013.584375	795.458794	414.888173	2007.548809	748.775005	426.509023	
757	3.028000	1705.784321	656.160235	693.588912	1480.384707	878.141642	614.864826	1543.728828	826.942921	609.464169	1454.951048	786.510944	610.469222	1536.437750	1137.597203	795.572460	1716.032743	1072.062016	744.266748	1802.834988	943.525851	680.589676	1855.682135	923.741817	743.452847	1808.057785	888.872147	791.395187	1857.589126	795.866668	701.330066	1926.091790	749.249220	664.242983	1856.601477	717.679441	636.263490	1920.124292	822.413564	651.195407	1991.490841	748.505235	535.371304	1926.193953	721.923470	495.718509	1980.585337	820.924699	544.079721	2012.584448	795.697808	413.583040	2006.620407	749.066830	425.257176	
758	3.032000	1705.798268	656.157553	693.607211	1480.437279	878.163278	614.920378	1543.774366	826.947391	609.514356	1454.991698	786.530674	610.508204	1536.537051	1137.599707	795.647860	1716.050625	1072.090626	744.279265	1802.695513	943.664193	680.274189	1856.199265	923.947692	742.205620	1808.139920	888.832331	790.970922	1857.521296	796.017945	700.566530	1925.885916	749.398530	663.223565	1856.338143	717.860043	635.483980	1919.881701	822.591007	650.229096	1990.898728	748.503089	534.071863	1925.502777	722.190380	494.655609	1979.999781	821.144760	542.951584	2011.557102	795.948029	412.290454	2005.672455	749.333560	424.023032	
759	3.036000	1705.815196	656.146824	693.619609	1480.494738	878.168344	614.969134	1543.820024	826.955378	609.572649	1455.027461	786.552846	610.542655	1536.628366	1137.582541	795.723736	1716.070414	1072.109818	744.294584	1802.560568	943.815708	679.953396	1856.271505	924.003243	741.614103	1808.200717	888.800144	790.552318	1857.421398	796.186149	699.839890	1925.669193	749.573112	662.215352	1856.041908	718.033791	634.700060	1919.571638	822.742224	649.101973	1990.273952	748.511791	532.737970	1924.805999	722.439528	493.608326	1979.400516	821.356893	541.774273	2010.545731	796.200156	411.006689	2004.707336	749.581575	422.729582	
760	3.040000	1705.824018	656.145632	693.654299	1480.517864	878.168583	615.024924	1543.853879	826.957583	609.618604	1455.075502	786.565244	610.588670	1536.696434	1137.568474	795.800984	1716.089725	1072.130442	744.302511	1802.412748	943.962157	679.649591	1856.254458	924.051225	741.156995	1808.258772	888.776541	790.130973	1857.306600	796.312451	699.103177	1925.455928	749.779284	661.201239	1855.757356	718.240261	633.861840	1919.186950	822.858930	647.687256	1989.635229	748.578608	531.434536	1924.052835	722.672403	492.524743	1978.806615	821.559966	540.595174	2009.546280	796.442807	409.732878	2003.766298	749.837995	421.437174	
761	3.044000	1705.836296	656.144440	693.669021	1480.561376	878.163695	615.066290	1543.884277	826.956749	609.668374	1455.130696	786.575198	610.614419	1536.780119	1137.556076	795.876503	1716.114759	1072.155952	744.307220	1802.263737	944.113374	679.335535	1856.239319	924.116969	740.712941	1808.320284	888.742208	789.677024	1857.208967	796.429992	698.310256	1925.218940	749.982059	660.212755	1855.486155	718.448043	633.004844	1918.902993	823.007047	646.661997	1989.003897	748.709798	530.141234	1923.308372	722.898722	491.396010	1978.211999	821.779668	539.431870	2008.537292	796.673954	408.431113	2002.788305	750.056505	420.182884	
